<svg width="395" height="134" viewBox="0 0 395 134" fill="none" xmlns="http://www.w3.org/2000/svg">
<g clip-path="url(#clip0_8_760)">
<rect width="395" height="134" rx="16" fill="white"/>
<path d="M26.8147 47H24.252V25.594H32.6034C36.764 25.594 39.4774 27.7346 39.4774 31.6841V32.2268C39.4774 36.2065 36.764 38.317 32.6034 38.317H26.8147V47ZM26.8147 27.825V36.0859H32.5129C35.1962 36.0859 36.8846 34.8498 36.8846 32.2268V31.6841C36.8846 29.0611 35.1962 27.825 32.5129 27.825H26.8147ZM45.5497 47.3618C42.3237 47.3618 40.364 45.5528 40.364 42.96C40.364 40.7289 41.6906 39.0406 44.1628 38.6788L50.6751 37.714V36.3573C50.6751 34.1262 49.1073 33.1313 47.1174 33.1313C44.9768 33.1313 43.4995 34.1865 43.3186 36.0558H40.967C41.2383 32.9806 43.5598 31.1716 47.1476 31.1716C50.9163 31.1716 53.0569 33.3122 53.0569 36.508V47H50.7957L50.7052 44.5881C49.7103 46.397 47.7204 47.3618 45.5497 47.3618ZM45.7909 45.3418C48.3837 45.3418 50.6751 43.6233 50.6751 41.2716V39.6737L44.9467 40.5179C43.4694 40.7289 42.8061 41.5731 42.8061 42.8997C42.8061 44.377 43.8312 45.3418 45.7909 45.3418ZM60.9652 52.1254H58.4929L60.4828 46.9699L54.4529 31.5334H57.0458L61.7491 44.1961L66.2413 31.5334H68.7437L60.9652 52.1254ZM82.8307 47H80.2379L75.5045 31.5334H77.9466L81.5645 44.0454L85.2427 31.5334H87.6245L91.363 44.1358L95.0111 31.5334H97.4532L92.6293 47H90.0666L86.4185 34.8498L82.8307 47ZM102.182 24.6895V29.031H99.6491V24.6895H102.182ZM99.6793 31.5334H102.091V47H99.6793V31.5334ZM112.046 47.3618C108.971 47.3618 107.343 45.9448 107.343 43.1107V33.4629H104.238V31.5334H107.343V26.7698H109.755V31.5334H114.187V33.4629H109.755V42.7791C109.755 44.4976 110.328 45.3116 112.348 45.3116C112.951 45.3116 113.795 45.1609 114.308 45.0101V47.0603C113.674 47.211 112.71 47.3618 112.046 47.3618ZM119.433 47H117.021V24.6895H119.433V34.0056C120.337 32.3474 121.996 31.1716 124.438 31.1716C128.116 31.1716 129.804 33.4328 129.804 36.9904V47H127.423V37.5633C127.423 34.7895 126.337 33.2519 123.805 33.2519C121.182 33.2519 119.433 35.1513 119.433 38.2265V47ZM148.327 47.3618C142.509 47.3618 138.589 43.1107 138.589 36.7191V35.8749C138.589 29.5737 142.478 25.2322 148.357 25.2322C153.212 25.2322 156.588 28.3074 157.071 33.1012H154.478C153.965 29.5435 151.614 27.5235 148.327 27.5235C143.895 27.5235 141.242 30.9606 141.242 35.8749V36.7191C141.242 41.6334 143.926 45.0704 148.327 45.0704C151.945 45.0704 154.327 42.6886 154.478 39.1612H157.101C156.739 43.8946 153.392 47.3618 148.327 47.3618ZM162.331 47H159.919V31.5334H162.271L162.301 34.5182C163.235 32.3776 164.954 31.1716 167.095 31.1716C167.336 31.1716 167.607 31.1716 167.909 31.2319V33.6438C167.577 33.6137 167.366 33.6137 167.034 33.6137C164.23 33.6137 162.331 35.3322 162.331 38.7089V47ZM175.645 52.1254H173.172L175.162 46.9699L169.132 31.5334H171.725L176.428 44.1961L180.921 31.5334H183.423L175.645 52.1254ZM188.093 52.1254H185.681V31.5334H187.943L188.003 34.3071C188.787 32.6791 190.626 31.1716 193.37 31.1716C197.379 31.1716 200.002 34.3071 200.002 38.9803V39.5531C200.002 44.1961 197.379 47.3618 193.339 47.3618C190.716 47.3618 188.938 46.0051 188.093 44.4675V52.1254ZM192.917 45.3116C195.842 45.3116 197.53 43.1409 197.53 39.5531V38.9803C197.53 35.3925 195.842 33.2218 192.947 33.2218C189.752 33.2218 188.003 35.3925 188.003 38.9803V39.5531C188.003 43.171 189.782 45.3116 192.917 45.3116ZM208.942 47.3618C205.867 47.3618 204.239 45.9448 204.239 43.1107V33.4629H201.134V31.5334H204.239V26.7698H206.651V31.5334H211.083V33.4629H206.651V42.7791C206.651 44.4976 207.224 45.3116 209.244 45.3116C209.847 45.3116 210.691 45.1609 211.204 45.0101V47.0603C210.57 47.211 209.606 47.3618 208.942 47.3618ZM220.256 47.3618C215.764 47.3618 212.93 44.2866 212.93 39.5531V38.9803C212.93 34.2468 215.764 31.1716 220.256 31.1716C224.748 31.1716 227.613 34.2468 227.613 38.9803V39.5531C227.613 44.2866 224.748 47.3618 220.256 47.3618ZM220.256 45.3116C223.422 45.3116 225.14 43.171 225.14 39.5531V38.9803C225.14 35.3624 223.422 33.2218 220.256 33.2218C217.121 33.2218 215.402 35.3624 215.402 38.9803V39.5531C215.402 43.171 217.121 45.3116 220.256 45.3116Z" fill="#08053F"/>
<path fill-rule="evenodd" clip-rule="evenodd" d="M260.695 24.9385H239.912V45.7213C239.912 46.4615 240.512 47.0615 241.253 47.0615H262.035V26.2787C262.035 25.5385 261.435 24.9385 260.695 24.9385ZM237.232 22.2581V45.7213C237.232 47.9418 239.032 49.7419 241.253 49.7419H264.716V26.2787C264.716 24.0582 262.916 22.2581 260.695 22.2581H237.232Z" fill="#FF6648"/>
<g clip-path="url(#clip1_8_760)">
<path d="M272.327 24.4416C272.485 24.4416 272.633 24.4416 272.781 24.4416C275.499 24.4416 278.218 24.4398 280.937 24.4425C282.62 24.4444 284.289 24.555 285.864 25.2312C288.466 26.3481 289.799 28.5891 289.768 31.6342C289.743 34.168 288.051 36.0808 285.864 36.9483C285.238 37.1967 284.56 37.3146 283.916 37.5222C283.745 37.5775 283.611 37.7443 283.461 37.8603C283.632 37.951 283.795 38.087 283.977 38.1241C284.654 38.2619 285.355 38.3063 286.014 38.4985C287.254 38.8602 287.999 39.7677 288.424 40.9498C289.195 43.092 289.951 45.2396 290.71 47.3845C290.745 47.4824 290.761 47.5866 290.796 47.7272C290.658 47.7426 290.546 47.7643 290.435 47.7652C289.317 47.7679 288.199 47.7571 287.081 47.7734C286.774 47.7779 286.636 47.6963 286.557 47.3745C286.148 45.7056 285.714 44.043 285.277 42.3804C284.754 40.3968 283.525 39.3226 281.402 39.1657C279.643 39.0361 277.874 39.0542 276.11 38.9953C275.748 38.9835 275.738 39.1857 275.738 39.4567C275.743 42.0241 275.741 44.5923 275.741 47.1597C275.741 47.5646 275.534 47.767 275.12 47.767C274.2 47.767 273.281 47.767 272.327 47.767V24.4416V24.4416ZM275.741 36.0907C275.939 36.0907 276.1 36.0907 276.263 36.0907C277.652 36.0907 279.042 36.0726 280.432 36.0962C281.492 36.1143 282.498 35.8986 283.476 35.5169C285.859 34.5868 286.948 32.1192 285.985 29.7721C285.374 28.2854 284.146 27.5592 282.626 27.4695C280.503 27.3444 278.37 27.3861 276.243 27.3353C275.843 27.3263 275.73 27.4477 275.732 27.8475C275.749 30.491 275.741 33.1345 275.741 35.778C275.741 35.8641 275.741 35.9511 275.741 36.0907H275.741Z" fill="#08053F"/>
<path d="M372.744 47.7515H369.606V47.2583C369.606 43.9803 369.611 40.7022 369.601 37.4241C369.601 36.9428 369.565 36.4569 369.497 35.98C369.271 34.3963 368.289 33.4934 366.682 33.3592C364.838 33.2051 363.247 34.3392 362.731 36.2565C362.545 36.9464 362.45 37.6807 362.443 38.396C362.411 41.3413 362.429 44.2867 362.429 47.233C362.429 47.3943 362.429 47.5566 362.429 47.7424H359.268C359.268 47.543 359.268 47.3671 359.268 47.1913C359.268 44.0492 359.285 40.9071 359.255 37.765C359.248 36.9863 359.162 36.1931 358.986 35.4352C358.521 33.4245 356.646 33.0736 355.32 33.4834C353.685 33.9892 352.821 35.2303 352.404 36.7905C352.201 37.552 352.124 38.3651 352.114 39.1566C352.08 41.8454 352.102 44.5342 352.102 47.223C352.102 47.3853 352.102 47.5475 352.102 47.7651C351.083 47.7651 350.105 47.7705 349.129 47.7551C349.055 47.7542 348.949 47.6228 348.918 47.5312C348.88 47.4233 348.905 47.2928 348.905 47.1713C348.905 41.9143 348.905 36.6572 348.905 31.4011C348.905 31.0034 349.101 30.8049 349.492 30.8055C350.337 30.8055 351.181 30.8055 352.066 30.8055C352.158 31.7202 352.085 32.5968 351.889 33.4653C351.842 33.671 351.76 33.8723 351.738 34.0799C351.72 34.2521 351.768 34.4316 351.787 34.6075C351.931 34.4824 352.118 34.3827 352.209 34.2268C352.454 33.8125 352.629 33.3574 352.882 32.9485C354.034 31.0874 356.305 30.1645 358.417 30.7121C359.903 31.0974 360.861 32.081 361.397 33.497C361.467 33.6801 361.49 33.8859 361.585 34.0527C361.657 34.1796 361.807 34.3337 361.93 34.3401C362.054 34.3473 362.233 34.215 362.307 34.0944C362.549 33.6955 362.724 33.2549 362.977 32.8651C364.113 31.1227 365.701 30.3232 367.794 30.5997C368.855 30.7393 369.834 31.0239 370.7 31.7183C371.825 32.6204 372.352 33.8179 372.573 35.1732C372.702 35.9583 372.75 36.7642 372.754 37.561C372.774 40.8237 372.764 44.0863 372.763 47.3499C372.763 47.4678 372.75 47.5856 372.741 47.7515H372.744Z" fill="#08053F"/>
<path d="M327.126 47.7663C326.142 47.7663 325.207 47.7754 324.272 47.7527C324.175 47.75 324.005 47.5687 323.999 47.4644C323.949 46.4654 323.984 45.4745 324.327 44.5145C324.386 44.3495 324.315 44.1374 324.304 43.947C324.153 44.0785 323.926 44.18 323.863 44.345C323.236 45.9895 322.098 47.1317 320.438 47.6584C317.83 48.4852 315.443 48.002 313.415 46.139C311.69 44.5544 310.959 42.4784 310.772 40.2021C310.587 37.9493 311.014 35.8162 312.213 33.8671C313.646 31.5409 316.162 30.3361 318.865 30.5773C320.469 30.7205 321.849 31.3361 322.898 32.5644C323.282 33.0141 323.523 33.5861 323.826 34.1047C323.887 34.208 323.905 34.3476 323.986 34.4256C324.08 34.5144 324.222 34.5525 324.343 34.6123C324.374 34.4918 324.456 34.3576 324.428 34.2524C323.526 30.8728 324.165 27.4325 324.016 24.0248C324.016 24.0121 324.028 23.9994 324.054 23.9504H327.127V47.7663H327.126ZM313.879 39.2656C313.966 39.9065 314.004 40.5584 314.151 41.1848C314.434 42.3869 314.981 43.4856 315.996 44.2144C318.175 45.7773 321.108 45.2633 322.638 43.2526C324.256 41.1268 324.433 38.7598 323.316 36.3819C322.263 34.1409 320.092 32.9189 317.426 33.6369C316.759 33.8164 316.173 34.1083 315.676 34.6096C314.393 35.9032 313.925 37.4897 313.878 39.2665L313.879 39.2656Z" fill="#08053F"/>
<path d="M296.062 36.0736H292.998C293.099 35.1399 293.394 34.3022 293.864 33.5244C294.592 32.3196 295.674 31.5409 296.981 31.0976C299.236 30.3325 301.516 30.3125 303.783 31.0604C305.992 31.7893 307.241 33.3522 307.591 35.6258C307.717 36.4435 307.789 37.2766 307.796 38.1034C307.819 41.2001 307.806 44.2969 307.805 47.3946C307.805 47.4988 307.793 47.6031 307.786 47.7363H304.64C304.608 46.6095 304.565 45.499 304.911 44.4138C304.975 44.2135 305.033 44.0077 305.055 43.8001C305.065 43.7049 304.978 43.5989 304.936 43.4982C304.832 43.5608 304.683 43.5989 304.633 43.6904C304.392 44.1247 304.219 44.6015 303.949 45.014C302.418 47.3501 300.185 48.2241 297.484 47.9711C295.672 47.8016 294.128 47.0374 293.139 45.4491C291.397 42.6506 292.804 39.1514 296.021 38.165C297.544 37.6982 299.12 37.7099 300.685 37.6102C301.512 37.5576 302.342 37.4951 303.165 37.3936C304.95 37.1733 304.853 35.895 304.245 34.77C303.844 34.0285 303.105 33.7076 302.321 33.5362C300.961 33.2389 299.593 33.2144 298.241 33.5761C297.103 33.8807 296.409 34.6331 296.156 35.7863C296.137 35.8742 296.1 35.9585 296.062 36.0727V36.0736ZM304.577 38.6781C304.035 39.2692 303.398 39.5339 302.707 39.6599C301.699 39.843 300.68 39.9654 299.675 40.1594C298.748 40.3389 297.785 40.4631 296.923 40.8194C295.417 41.4413 295.16 43.4946 296.385 44.5263C296.97 45.0194 297.674 45.15 298.413 45.1654C302.383 45.2524 304.734 42.2608 304.578 38.6781H304.577Z" fill="#08053F"/>
<path d="M346.22 39.2622C346.243 41.4007 345.724 43.3815 344.383 45.0903C343.09 46.7384 341.373 47.6704 339.313 47.9405C337.606 48.1635 335.941 47.9868 334.37 47.2253C332.42 46.2797 331.122 44.7404 330.421 42.7197C329.581 40.2956 329.593 37.8516 330.574 35.4665C331.887 32.2745 334.675 30.485 338.143 30.5421C340.791 30.5856 342.988 31.5629 344.578 33.7304C345.575 35.0902 346.067 36.645 346.216 38.313C346.244 38.6267 346.22 38.9458 346.22 39.2622H346.22ZM343.077 39.0428C343.086 38.1562 342.886 37.0964 342.371 36.1119C341.503 34.4511 340.153 33.5165 338.255 33.4548C336.339 33.3923 334.814 34.1384 333.898 35.84C332.619 38.2133 332.641 40.6338 334.033 42.9536C335.732 45.7866 339.638 45.5899 341.33 43.8738C342.594 42.5928 343.086 41.0218 343.077 39.0428Z" fill="#08053F"/>
</g>
<mask id="path-10-inside-1_8_760" fill="white">
<path d="M0 72H395V134H0V72Z"/>
</mask>
<path d="M0 72H395V134H0V72Z" fill="white"/>
<path d="M67.6995 88.4813C67.6995 90.199 67.6995 91.9167 67.6995 93.6344C67.6995 93.685 67.6972 93.7332 67.6972 93.7838C67.688 93.7861 67.6834 93.7907 67.6834 93.7999C65.0758 93.7999 62.4682 93.7999 59.8584 93.8022C59.8055 93.8022 59.7526 93.8022 59.6928 93.8022C59.6928 94.9704 59.6928 96.1293 59.6928 97.2951C59.7756 97.3066 59.863 97.3227 59.948 97.3273C60.2792 97.3457 60.6126 97.3549 60.9437 97.3756C61.33 97.4009 61.7186 97.4308 62.1049 97.4676C63.3374 97.5802 64.5653 97.7251 65.784 97.9527C67.0189 98.1827 68.2422 98.4563 69.408 98.9392C69.8012 99.1025 70.1852 99.2864 70.5186 99.5555C70.6543 99.6658 70.7831 99.79 70.8888 99.928C71.1395 100.257 71.1372 100.609 70.8957 100.947C70.6819 101.243 70.3875 101.443 70.0748 101.618C69.3873 102 68.6469 102.244 67.8949 102.453C66.8165 102.752 65.7197 102.959 64.6136 103.117C64.0618 103.195 63.5053 103.262 62.9511 103.327C62.5579 103.373 62.1624 103.409 61.7692 103.442C61.3185 103.478 60.8655 103.506 60.4125 103.538C60.178 103.554 59.9434 103.573 59.6882 103.591C59.6882 103.637 59.6882 103.688 59.6882 103.74C59.6882 107.376 59.6882 111.009 59.6882 114.644C59.6882 114.695 59.6859 114.743 59.6859 114.794C59.679 114.794 59.6744 114.799 59.6721 114.808C59.6422 114.81 59.61 114.812 59.5801 114.812C57.7176 114.812 55.8527 114.812 53.9902 114.812C53.9626 114.812 53.9373 114.81 53.9097 114.81C53.9074 114.801 53.9005 114.799 53.8913 114.796C53.8913 114.746 53.889 114.697 53.889 114.647C53.889 111.011 53.889 107.378 53.889 103.743C53.889 103.694 53.889 103.644 53.889 103.589C53.6315 103.573 53.3831 103.559 53.1348 103.545C52.8542 103.529 52.5737 103.513 52.2932 103.492C51.7528 103.451 51.2147 103.414 50.6767 103.356C50.1409 103.299 49.6074 103.225 49.0739 103.147C47.9518 102.986 46.8389 102.784 45.7443 102.485C45.0131 102.287 44.2934 102.053 43.6174 101.703C43.3276 101.554 43.0517 101.381 42.8194 101.147C42.7413 101.068 42.67 100.981 42.6125 100.887C42.4308 100.597 42.4331 100.3 42.6125 100.008C42.7551 99.7762 42.9597 99.6014 43.1851 99.452C43.707 99.1002 44.2865 98.8702 44.8798 98.6725C45.9559 98.3115 47.0642 98.0723 48.1818 97.8907C48.9337 97.7711 49.6902 97.6745 50.4444 97.5756C50.7387 97.5365 51.0354 97.5227 51.332 97.4951C51.6999 97.463 52.0678 97.4262 52.4357 97.3986C52.668 97.3802 52.9002 97.3733 53.1325 97.3572C53.3808 97.3411 53.6269 97.3227 53.8821 97.3043C53.8821 96.1454 53.8821 94.9887 53.8821 93.8091C51.2216 93.8091 48.5566 93.8091 45.8938 93.8091C45.8938 93.7999 45.8892 93.7953 45.88 93.793C45.88 93.1239 45.8777 92.4548 45.8777 91.7833C45.8777 90.6842 45.8777 89.5873 45.8777 88.4882C45.8823 88.4813 45.8869 88.4721 45.8892 88.4652C45.9306 88.4652 45.9743 88.4629 46.0157 88.4629C53.1992 88.4629 60.3849 88.4629 67.5684 88.4629C67.6098 88.4629 67.6535 88.4652 67.6949 88.4652C67.6903 88.4652 67.6949 88.4721 67.6995 88.4813ZM59.6767 97.7412C59.6767 99.0266 59.6767 100.312 59.6767 101.597C59.6721 101.604 59.6698 101.613 59.6652 101.62C59.502 101.636 59.341 101.659 59.1777 101.666C58.7477 101.685 58.3154 101.71 57.8854 101.712C57.1197 101.715 56.3563 101.703 55.5906 101.694C55.2894 101.689 54.9881 101.678 54.6869 101.664C54.4248 101.653 54.1626 101.634 53.9005 101.618C53.8959 101.611 53.889 101.604 53.8844 101.595C53.8844 100.305 53.8844 99.0151 53.8844 97.7044C53.7165 97.7159 53.5602 97.7274 53.4061 97.7366C53.1555 97.7504 52.9025 97.7573 52.6519 97.7734C52.2495 97.8033 51.8471 97.8378 51.4447 97.8723C51.0216 97.909 50.5939 97.9366 50.1731 97.9941C49.3246 98.1114 48.4761 98.2333 47.6322 98.3804C46.7699 98.5322 45.9168 98.7392 45.1028 99.0749C44.8223 99.1898 44.5578 99.3485 44.2911 99.498C44.1968 99.5509 44.114 99.6336 44.0382 99.7141C43.7645 100.004 43.7645 100.31 44.0336 100.602C44.2589 100.845 44.5463 101 44.843 101.135C45.5259 101.448 46.2456 101.639 46.9745 101.804C48.122 102.062 49.2832 102.232 50.4513 102.356C50.9549 102.409 51.4608 102.453 51.9667 102.496C52.3415 102.529 52.7163 102.563 53.0911 102.584C53.459 102.607 53.8292 102.614 54.1971 102.63C54.5857 102.646 54.9743 102.676 55.3629 102.676C56.3931 102.678 57.4209 102.667 58.4511 102.66C58.7224 102.657 58.9938 102.648 59.2628 102.634C59.6859 102.616 60.1067 102.593 60.5298 102.568C60.9736 102.54 61.4174 102.51 61.8612 102.473C62.2613 102.441 62.6614 102.404 63.0615 102.358C63.6088 102.294 64.1583 102.239 64.6987 102.147C65.4782 102.011 66.2554 101.86 67.028 101.689C67.6121 101.561 68.1824 101.374 68.7273 101.117C68.9987 100.988 69.2677 100.848 69.4793 100.629C69.7391 100.363 69.7759 100.059 69.5482 99.7762C69.4586 99.6658 69.3436 99.5716 69.2263 99.4888C68.9205 99.2726 68.5779 99.1278 68.2284 98.999C67.6742 98.792 67.1039 98.638 66.5268 98.5161C66.2117 98.4494 65.8944 98.385 65.5771 98.3275C65.1701 98.254 64.7608 98.1873 64.3492 98.1252C64.0963 98.0861 63.841 98.0631 63.5858 98.0332C63.2776 97.9964 62.9718 97.9527 62.6637 97.9228C62.3671 97.893 62.0681 97.8769 61.7692 97.8539C61.4634 97.8309 61.1576 97.8079 60.8517 97.7849C60.7115 97.7757 60.5712 97.7688 60.4309 97.7619C60.1849 97.7481 59.9388 97.732 59.6905 97.7182C59.6859 97.7251 59.6813 97.7343 59.6767 97.7412Z" fill="#FEFEFE"/>
<path d="M45.8838 88.456C45.8789 88.4632 45.8741 88.473 45.8716 88.4803C45.8741 88.473 45.8789 88.4657 45.8838 88.456Z" fill="#7ACDB9"/>
<path d="M67.7002 88.4824C67.6953 88.4751 67.6905 88.4654 67.688 88.4581C67.6905 88.4654 67.6953 88.4727 67.7002 88.4824Z" fill="#7ACDB9"/>
<path d="M45.8759 93.7839C45.8861 93.7865 45.8911 93.7915 45.8911 93.8017C45.8861 93.7966 45.881 93.789 45.8759 93.7839Z" fill="#7ACDB9"/>
<path d="M67.6837 93.8017C67.6837 93.7915 67.6888 93.7865 67.699 93.7839C67.6913 93.789 67.6888 93.7966 67.6837 93.8017Z" fill="#7ACDB9"/>
<path d="M53.8876 114.787C53.8977 114.787 53.9028 114.792 53.9079 114.802C53.9003 114.795 53.8927 114.792 53.8876 114.787Z" fill="#90D4C4"/>
<path d="M59.6678 114.798C59.6678 114.792 59.6723 114.787 59.6814 114.785C59.6768 114.789 59.6723 114.794 59.6678 114.798Z" fill="#90D4C4"/>
<path fill-rule="evenodd" clip-rule="evenodd" d="M56.6819 122.996H56.8658C56.9307 122.939 56.9961 122.882 57.0616 122.826C57.2143 122.693 57.3671 122.561 57.512 122.421C60.0708 119.971 62.6297 117.519 65.1885 115.067C66.4675 113.842 67.7464 112.616 69.0253 111.391L77.2872 103.474L77.289 103.472C78.0381 102.755 78.7871 102.038 79.5338 101.319C79.5904 101.264 79.6395 101.2 79.6884 101.137C79.711 101.108 79.7336 101.078 79.7568 101.05V100.889C79.3847 100.11 79.0139 99.3298 78.6434 98.5501C78.524 98.2988 78.4046 98.0475 78.2852 97.7963L78.2738 97.7723C75.9735 92.94 73.6733 88.1077 71.3753 83.2753C71.2857 83.0845 71.1569 83.004 70.9453 83.004C61.4992 83.0063 52.0554 83.0063 42.6092 83.004C42.3885 83.004 42.2597 83.0891 42.1654 83.2868C39.4015 89.0975 36.6353 94.9082 33.869 100.717C33.7448 100.976 33.7609 101.078 33.9587 101.266L33.9679 101.275C37.8233 104.97 41.6787 108.664 45.5341 112.356C49.1742 115.847 52.8165 119.338 56.4588 122.826C56.5038 122.869 56.5551 122.905 56.607 122.942C56.632 122.96 56.6572 122.977 56.6819 122.996ZM45.8721 88.479C45.8744 88.4721 45.879 88.4629 45.8836 88.456C45.925 88.456 45.9664 88.4537 46.0032 88.4468H67.556C67.5767 88.4468 67.5979 88.4474 67.6192 88.4479C67.6405 88.4485 67.6617 88.4491 67.6824 88.4491C67.6847 88.456 67.6893 88.4652 67.6939 88.4721V93.6251C67.6939 93.6504 67.6934 93.6752 67.6928 93.6999C67.6922 93.7246 67.6916 93.7493 67.6916 93.7746C67.687 93.7792 67.6824 93.7861 67.6778 93.7907C65.068 93.793 62.4604 93.793 59.8528 93.793H59.6872V97.2859C59.7115 97.2892 59.7359 97.2928 59.7602 97.2965C59.8209 97.3056 59.8817 97.3148 59.9425 97.3181C60.0898 97.3262 60.2376 97.3326 60.3855 97.339C60.5699 97.3469 60.7544 97.3549 60.9381 97.3664C61.3267 97.3916 61.7131 97.4238 62.0994 97.4583C63.3319 97.571 64.5598 97.7182 65.7785 97.9435C67.0133 98.1735 68.2366 98.4471 69.4024 98.93C69.7956 99.0932 70.1796 99.2772 70.5131 99.5462C70.6487 99.6566 70.7775 99.7808 70.8833 99.9187C71.1362 100.248 71.1316 100.599 70.8902 100.937C70.6763 101.234 70.382 101.434 70.0693 101.609C69.384 101.991 68.6436 102.234 67.8894 102.444C66.8109 102.742 65.7141 102.949 64.6081 103.108C64.0562 103.186 63.4997 103.253 62.9456 103.317C62.5524 103.363 62.1591 103.4 61.7636 103.432C61.4599 103.457 61.1572 103.478 60.8541 103.498C60.7052 103.508 60.5562 103.518 60.407 103.529C60.2344 103.542 60.0618 103.555 59.881 103.568C59.816 103.572 59.7501 103.577 59.6826 103.582V103.731V114.635C59.6826 114.661 59.6821 114.685 59.6815 114.71C59.6809 114.735 59.6803 114.759 59.6803 114.785L59.6665 114.798C59.6367 114.801 59.6045 114.803 59.5746 114.803H53.9846C53.9708 114.803 53.9576 114.803 53.9444 114.802C53.9311 114.801 53.9179 114.801 53.9041 114.801C53.9005 114.798 53.8975 114.796 53.8944 114.793C53.8917 114.791 53.889 114.789 53.8857 114.787C53.8857 114.762 53.8852 114.737 53.8846 114.712C53.884 114.688 53.8834 114.663 53.8834 114.638V103.734V103.579C53.6236 103.566 53.3776 103.552 53.1292 103.536C53.0731 103.533 53.017 103.529 52.9609 103.526C52.7365 103.514 52.5121 103.501 52.2876 103.483C52.1875 103.475 52.0873 103.468 51.987 103.46C51.5485 103.427 51.109 103.394 50.6711 103.347C50.1354 103.29 49.602 103.214 49.0685 103.138L49.0684 103.138C47.9463 102.977 46.8333 102.772 45.7388 102.476C45.0076 102.278 44.2878 102.043 43.6118 101.694C43.3198 101.544 43.0438 101.372 42.8139 101.137C42.738 101.057 42.6644 100.972 42.6069 100.878C42.4253 100.586 42.4276 100.291 42.6069 99.9992C42.7518 99.767 42.9564 99.5922 43.1795 99.4428C43.7015 99.0909 44.2809 98.861 44.8742 98.6632C45.9503 98.3022 47.0564 98.0608 48.1762 97.8814C48.8535 97.7737 49.5345 97.6847 50.2142 97.5958C50.2891 97.586 50.364 97.5762 50.4389 97.5664C50.6495 97.5384 50.8614 97.5222 51.0736 97.506C51.1579 97.4996 51.2421 97.4931 51.3264 97.4859C51.4491 97.4752 51.5717 97.4642 51.6944 97.4532C51.9396 97.4312 52.1849 97.4093 52.4302 97.3893C52.585 97.3771 52.7399 97.3689 52.8947 97.3607C52.9721 97.3566 53.0495 97.3526 53.1269 97.348C53.3263 97.3349 53.5272 97.3204 53.7321 97.3055C53.78 97.302 53.8282 97.2986 53.8765 97.2951V93.7999H45.8882C45.8859 93.7976 45.8836 93.7947 45.8813 93.7919C45.879 93.789 45.8767 93.7861 45.8744 93.7838C45.8744 93.4478 45.8739 93.1124 45.8733 92.7772C45.8727 92.4427 45.8721 92.1084 45.8721 91.7741V88.479ZM54.1013 101.63C54.0358 101.626 53.9703 101.622 53.9047 101.618C53.8978 101.611 53.8932 101.604 53.8886 101.593V97.7022C53.8429 97.7053 53.798 97.7084 53.7538 97.7115C53.6357 97.7198 53.5224 97.7277 53.4104 97.7344C53.3381 97.7377 53.2657 97.7406 53.1932 97.7435C53.0141 97.7508 52.8346 97.7581 52.6561 97.7711C52.2537 97.7987 51.8513 97.8332 51.4489 97.87C51.3477 97.8788 51.2463 97.8871 51.1447 97.8954C50.8216 97.9217 50.4975 97.9482 50.1773 97.9919C49.3288 98.1092 48.4803 98.231 47.6364 98.3782C46.7719 98.53 45.9211 98.7369 45.107 99.0726C44.873 99.1685 44.6502 99.2948 44.428 99.4208C44.3838 99.4459 44.3396 99.4709 44.2953 99.4957C44.2011 99.5509 44.1183 99.6314 44.0424 99.7119C43.7688 100.002 43.7688 100.307 44.0378 100.599C44.2632 100.843 44.5506 100.997 44.8472 101.133C45.5301 101.446 46.2499 101.639 46.9788 101.802C48.1262 102.06 49.2874 102.23 50.4556 102.354C50.8881 102.401 51.3223 102.439 51.7567 102.476C51.8281 102.482 51.8995 102.488 51.9709 102.494L51.9711 102.494C52.3459 102.526 52.7206 102.559 53.0953 102.582C53.3291 102.596 53.5639 102.604 53.7984 102.612C53.9329 102.617 54.0673 102.622 54.2014 102.628C54.3241 102.633 54.4468 102.639 54.5695 102.646C54.8354 102.66 55.1013 102.674 55.3672 102.674C56.3957 102.676 57.4219 102.667 58.4504 102.658L58.4554 102.657C58.7238 102.655 58.9899 102.644 59.2583 102.633L59.2671 102.632C59.6902 102.614 60.1133 102.591 60.5341 102.566C60.9779 102.538 61.4216 102.508 61.8654 102.471C62.2655 102.439 62.6656 102.402 63.0658 102.356C63.147 102.347 63.2282 102.338 63.3094 102.329C63.7753 102.277 64.2408 102.225 64.703 102.145C65.4825 102.009 66.2597 101.857 67.0323 101.687C67.6164 101.558 68.1866 101.372 68.7316 101.115C69.0029 100.986 69.2697 100.846 69.4835 100.627C69.7457 100.358 69.7824 100.057 69.5525 99.774C69.4628 99.6636 69.3478 99.5693 69.2306 99.4865C68.9247 99.2704 68.5821 99.1255 68.2326 98.9968C67.6785 98.7898 67.1082 98.6357 66.531 98.5139C66.216 98.4472 65.8987 98.3828 65.5814 98.3253C65.172 98.254 64.7627 98.185 64.3534 98.123C64.1716 98.0965 63.9886 98.076 63.8053 98.0555C63.7336 98.0474 63.6618 98.0394 63.59 98.031C63.4859 98.0186 63.3821 98.0053 63.2783 97.9921C63.075 97.9662 62.872 97.9404 62.6679 97.9206C62.4694 97.9006 62.2699 97.8868 62.07 97.8729C61.9712 97.8661 61.8723 97.8592 61.7735 97.8516C61.6715 97.844 61.5696 97.836 61.4677 97.8281C61.2638 97.8123 61.0599 97.7964 60.856 97.7826C60.7858 97.778 60.7157 97.7746 60.6456 97.7711C60.5754 97.7677 60.5053 97.7642 60.4352 97.7597C60.3074 97.7526 60.1801 97.7448 60.0532 97.7371C59.9336 97.7299 59.8142 97.7227 59.6948 97.716C59.6902 97.7252 59.6856 97.7321 59.681 97.7413V101.597C59.6787 101.601 59.6769 101.605 59.6752 101.609C59.6735 101.613 59.6718 101.617 59.6695 101.62C59.6198 101.625 59.5703 101.631 59.5209 101.636C59.408 101.649 59.2955 101.662 59.182 101.666C59.1407 101.668 59.0994 101.67 59.058 101.672C58.669 101.691 58.2784 101.71 57.8897 101.712C57.2344 101.714 56.5807 101.706 55.9259 101.698C55.8156 101.697 55.7052 101.695 55.5948 101.694C55.2936 101.689 54.9924 101.678 54.6912 101.664C54.4945 101.655 54.2979 101.643 54.1013 101.63Z" fill="#0BB194"/>
<path d="M59.6951 97.7161C59.6903 97.7258 59.6854 97.7331 59.6805 97.7428C59.683 97.7355 59.6878 97.7258 59.6951 97.7161Z" fill="#6FC8B3"/>
<path d="M53.9046 101.62C53.8997 101.612 53.8924 101.605 53.8876 101.595C53.8924 101.605 53.8973 101.612 53.9046 101.62Z" fill="#A0DBCD"/>
<path d="M59.6799 101.597C59.6751 101.605 59.6726 101.614 59.6678 101.622C59.6726 101.614 59.6751 101.605 59.6799 101.597Z" fill="#6FC8B3"/>
<path d="M114.748 82C115.192 82 115.637 82 116.082 82C116.114 82.0053 116.146 82.0142 116.178 82.0153C117.356 82.0538 118.523 82.1971 119.678 82.4356C121.545 82.8213 123.33 83.443 125.027 84.3137C127.395 85.5286 129.458 87.1365 131.214 89.1374C132.975 91.1453 134.307 93.4076 135.211 95.9204C135.932 97.9222 136.336 99.9868 136.426 102.113C136.427 102.139 136.413 102.172 136.448 102.19V103.787C136.417 103.802 136.428 103.831 136.427 103.855C136.414 104.171 136.391 104.488 136.364 104.804C136.252 106.118 136.016 107.409 135.658 108.677C134.705 112.052 133.02 115.011 130.592 117.541C128.763 119.447 126.644 120.952 124.245 122.06C121.859 123.163 119.353 123.797 116.729 123.961C116.579 123.97 116.426 123.954 116.279 124H115.098C114.923 123.994 114.748 123.989 114.573 123.983C113.68 123.938 112.793 123.847 111.913 123.695C109.986 123.363 108.138 122.782 106.375 121.937C103.975 120.787 101.869 119.237 100.061 117.284C98.1137 115.18 96.6547 112.776 95.6834 110.079C94.9625 108.078 94.5589 106.013 94.4687 103.887C94.4676 103.861 94.4819 103.828 94.4475 103.809V102.256C94.4773 102.241 94.4668 102.212 94.4676 102.188C94.5241 100.713 94.7337 99.2587 95.104 97.8294C96.2738 93.3168 98.6674 89.5872 102.285 86.6465C103.56 85.6104 104.946 84.7476 106.428 84.0414C108.15 83.2212 109.95 82.6445 111.829 82.315C112.73 82.1569 113.638 82.0553 114.553 82.0201C114.618 82.0177 114.685 82.0263 114.748 82.0002L114.748 82ZM121.778 103.391C121.841 103.374 121.885 103.362 121.929 103.35C123.027 103.055 123.846 102.421 124.319 101.374C124.62 100.707 124.762 100.002 124.758 99.2722C124.754 98.5391 124.544 97.866 124.124 97.2613C123.739 96.7074 123.239 96.277 122.678 95.913C121.906 95.412 121.067 95.053 120.202 94.7529C120.109 94.7207 120.093 94.6826 120.116 94.5901C120.415 93.4006 120.71 92.2099 121.009 91.0206C121.03 90.9375 121.01 90.9174 120.933 90.8985C120.23 90.7264 119.527 90.5516 118.825 90.3724C118.743 90.3514 118.722 90.3706 118.702 90.4483C118.415 91.6109 118.123 92.7721 117.835 93.9344C117.817 94.0066 117.802 94.0355 117.716 94.0143C117.168 93.8802 116.619 93.7513 116.068 93.6264C115.985 93.6074 115.965 93.5859 115.987 93.4984C116.28 92.3374 116.567 91.1748 116.86 90.0136C116.883 89.9211 116.873 89.883 116.771 89.8583C116.088 89.6933 115.407 89.5209 114.726 89.3512C114.585 89.3162 114.586 89.3168 114.55 89.459C114.257 90.6351 113.963 91.811 113.673 92.9876C113.65 93.0779 113.621 93.0992 113.526 93.0753C113.05 92.9561 112.571 92.85 112.095 92.7259C111.092 92.4638 110.083 92.2223 109.077 91.969C109.009 91.9519 108.989 91.9668 108.974 92.0298C108.785 92.7931 108.595 93.556 108.403 94.3184C108.385 94.3897 108.395 94.4151 108.474 94.433C108.921 94.5352 109.367 94.6411 109.811 94.7544C110.079 94.8226 110.347 94.8942 110.586 95.0432C111.012 95.3099 111.217 95.8073 111.097 96.2904C110.74 97.7282 110.382 99.1659 110.023 100.603C109.535 102.56 109.05 104.517 108.556 106.472C108.473 106.801 108.262 107.031 107.916 107.104C107.726 107.144 107.537 107.105 107.353 107.059C106.869 106.939 106.386 106.816 105.904 106.688C105.831 106.669 105.804 106.685 105.775 106.752C105.422 107.57 105.067 108.388 104.71 109.206C104.679 109.276 104.674 109.311 104.768 109.329C104.939 109.362 105.107 109.412 105.276 109.455C106.575 109.782 107.873 110.11 109.171 110.439C109.311 110.474 109.311 110.475 109.276 110.617C108.981 111.8 108.686 112.984 108.388 114.166C108.362 114.268 108.367 114.31 108.487 114.338C109.177 114.503 109.865 114.678 110.553 114.853C110.629 114.873 110.662 114.869 110.685 114.778C110.979 113.584 111.279 112.391 111.573 111.196C111.596 111.106 111.625 111.093 111.711 111.116C112.245 111.258 112.78 111.398 113.317 111.532C113.42 111.557 113.435 111.594 113.411 111.691C113.112 112.87 112.819 114.05 112.522 115.228C112.5 115.315 112.516 115.343 112.605 115.365C113.298 115.533 113.991 115.706 114.681 115.884C114.787 115.911 114.813 115.881 114.836 115.784C115.132 114.586 115.432 113.389 115.729 112.191C115.747 112.118 115.769 112.088 115.851 112.104C116.334 112.199 116.82 112.273 117.308 112.329C118.275 112.438 119.242 112.472 120.205 112.296C121.533 112.054 122.586 111.395 123.293 110.231C123.848 109.317 124.174 108.321 124.255 107.254C124.319 106.399 124.128 105.603 123.621 104.898C123.252 104.383 122.773 103.989 122.237 103.659C122.093 103.57 121.944 103.488 121.779 103.392L121.778 103.391Z" fill="#F6921A"/>
<path d="M114.573 124C114.573 123.995 114.573 123.989 114.573 123.984C114.748 123.989 114.923 123.995 115.098 124H114.573Z" fill="#FEFEFE"/>
<path d="M121.778 103.391C121.944 103.488 122.093 103.57 122.237 103.659C122.772 103.989 123.251 104.383 123.621 104.898C124.127 105.603 124.319 106.399 124.254 107.254C124.174 108.321 123.848 109.316 123.293 110.231C122.586 111.395 121.533 112.054 120.205 112.296C119.241 112.472 118.275 112.437 117.308 112.328C116.819 112.273 116.333 112.198 115.851 112.104C115.768 112.087 115.746 112.118 115.728 112.191C115.432 113.389 115.131 114.586 114.836 115.784C114.812 115.881 114.786 115.911 114.681 115.884C113.99 115.706 113.298 115.533 112.605 115.365C112.515 115.343 112.499 115.314 112.521 115.228C112.819 114.049 113.112 112.87 113.41 111.691C113.435 111.594 113.419 111.557 113.317 111.531C112.78 111.398 112.245 111.258 111.71 111.115C111.624 111.092 111.595 111.105 111.573 111.196C111.278 112.39 110.978 113.583 110.684 114.778C110.662 114.869 110.629 114.872 110.552 114.853C109.864 114.678 109.177 114.503 108.486 114.338C108.367 114.31 108.362 114.268 108.388 114.166C108.686 112.983 108.98 111.8 109.275 110.617C109.311 110.475 109.311 110.474 109.171 110.438C107.873 110.11 106.574 109.782 105.276 109.454C105.106 109.411 104.938 109.362 104.767 109.329C104.674 109.311 104.678 109.276 104.709 109.205C105.066 108.388 105.422 107.57 105.774 106.751C105.803 106.684 105.83 106.669 105.904 106.688C106.386 106.816 106.869 106.939 107.353 107.059C107.537 107.104 107.726 107.144 107.915 107.104C108.261 107.031 108.473 106.801 108.556 106.472C109.049 104.517 109.535 102.56 110.023 100.603C110.381 99.1657 110.739 97.7279 111.097 96.2902C111.217 95.8073 111.012 95.3096 110.585 95.0429C110.347 94.894 110.079 94.8222 109.811 94.7542C109.367 94.6408 108.92 94.535 108.473 94.4328C108.394 94.4149 108.385 94.3895 108.403 94.3182C108.595 93.5557 108.785 92.7929 108.973 92.0296C108.989 91.9668 109.009 91.9519 109.077 91.9688C110.082 92.2221 111.091 92.4636 112.095 92.7257C112.57 92.85 113.049 92.9559 113.525 93.0751C113.621 93.0989 113.65 93.0779 113.672 92.9874C113.963 91.8106 114.257 90.6349 114.55 89.4588C114.585 89.3166 114.585 89.3159 114.725 89.3509C115.407 89.5207 116.088 89.6929 116.771 89.8581C116.873 89.8828 116.883 89.9208 116.859 90.0134C116.567 91.1746 116.28 92.337 115.987 93.4982C115.965 93.5857 115.984 93.6072 116.068 93.6262C116.618 93.7511 117.167 93.88 117.715 94.0141C117.802 94.0353 117.817 94.0064 117.835 93.9342C118.123 92.7719 118.414 91.6104 118.702 90.4481C118.721 90.3704 118.742 90.3512 118.825 90.3722C119.526 90.5513 120.229 90.7261 120.933 90.8983C121.01 90.9171 121.03 90.9373 121.009 91.0204C120.709 92.2099 120.415 93.4004 120.115 94.5899C120.092 94.6824 120.109 94.7205 120.202 94.7526C121.067 95.0528 121.906 95.412 122.677 95.9128C123.239 96.277 123.738 96.7074 124.123 97.2611C124.544 97.8658 124.753 98.5391 124.757 99.272C124.761 100.002 124.619 100.707 124.318 101.374C123.846 102.421 123.027 103.055 121.929 103.349C121.885 103.361 121.841 103.374 121.778 103.391L121.778 103.391ZM116.692 109.082C117.123 109.075 117.55 109.032 117.964 108.904C119.119 108.546 119.75 107.44 119.449 106.293C119.307 105.755 118.965 105.354 118.538 105.019C117.942 104.553 117.257 104.259 116.551 104.011C115.618 103.684 114.651 103.485 113.692 103.261C113.606 103.241 113.604 103.29 113.59 103.343C113.186 104.967 112.782 106.591 112.376 108.214C112.357 108.287 112.359 108.321 112.445 108.343C113.013 108.486 113.578 108.642 114.15 108.767C114.987 108.95 115.831 109.088 116.692 109.082H116.692ZM117.651 101.546C117.948 101.544 118.278 101.521 118.603 101.446C119.805 101.166 120.492 100.022 120.15 98.8629C119.998 98.3497 119.655 97.9811 119.231 97.677C118.81 97.3753 118.343 97.1644 117.86 96.9872C117.061 96.6942 116.229 96.5271 115.404 96.3346C115.326 96.3164 115.33 96.3709 115.319 96.4127C114.952 97.8846 114.586 99.3567 114.218 100.828C114.2 100.898 114.203 100.929 114.284 100.948C114.521 101.003 114.755 101.071 114.991 101.131C115.853 101.352 116.721 101.537 117.651 101.546L117.651 101.546Z" fill="#FEFEFE"/>
<path d="M116.692 109.082C115.831 109.088 114.988 108.95 114.15 108.767C113.578 108.642 113.013 108.486 112.445 108.343C112.359 108.321 112.358 108.287 112.376 108.214C112.782 106.591 113.186 104.967 113.591 103.343C113.604 103.29 113.606 103.241 113.692 103.261C114.652 103.485 115.618 103.684 116.551 104.011C117.258 104.259 117.943 104.553 118.538 105.019C118.966 105.354 119.308 105.755 119.449 106.293C119.75 107.44 119.119 108.546 117.965 108.904C117.55 109.032 117.124 109.075 116.692 109.082H116.692Z" fill="#F6921A"/>
<path d="M117.651 101.546C116.721 101.537 115.853 101.352 114.991 101.131C114.755 101.07 114.521 101.003 114.284 100.948C114.203 100.929 114.2 100.898 114.218 100.828C114.586 99.3565 114.952 97.8841 115.319 96.4124C115.329 96.3709 115.326 96.3162 115.404 96.3343C116.229 96.5269 117.061 96.694 117.86 96.9869C118.343 97.1641 118.81 97.375 119.23 97.6767C119.654 97.9808 119.998 98.3494 120.15 98.8627C120.492 100.021 119.804 101.166 118.603 101.445C118.278 101.521 117.948 101.544 117.651 101.546L117.651 101.546Z" fill="#F6921A"/>
<circle cx="172.138" cy="103" r="21" fill="black"/>
<path d="M163.3 108.401C163.458 108.243 163.676 108.151 163.906 108.151H184.801C185.182 108.151 185.373 108.612 185.103 108.882L180.976 113.01C180.818 113.168 180.601 113.26 180.37 113.26H159.476C159.094 113.26 158.903 112.799 159.173 112.529L163.3 108.401Z" fill="url(#paint0_linear_8_760)"/>
<path d="M163.3 92.9905C163.465 92.8325 163.682 92.7403 163.906 92.7403H184.801C185.182 92.7403 185.373 93.2011 185.103 93.471L180.976 97.5986C180.818 97.7566 180.601 97.8488 180.37 97.8488H159.476C159.094 97.8488 158.903 97.388 159.173 97.1181L163.3 92.9905Z" fill="url(#paint1_linear_8_760)"/>
<path d="M180.976 100.647C180.818 100.489 180.601 100.396 180.37 100.396H159.476C159.094 100.396 158.903 100.857 159.173 101.127L163.3 105.255C163.458 105.413 163.676 105.505 163.906 105.505H184.801C185.182 105.505 185.373 105.044 185.103 104.774L180.976 100.647Z" fill="url(#paint2_linear_8_760)"/>
<g clip-path="url(#clip2_8_760)">
<path d="M228.825 123.992C217.201 124 207.829 114.642 207.829 103.019C207.829 91.2747 217.329 81.9097 229.02 82.0073C240.494 82.1048 249.911 91.3873 249.829 103.176C249.739 114.762 240.366 124.007 228.825 123.992ZM230.236 110.988C230.476 110.928 230.694 110.875 230.904 110.815C233.102 110.207 234.798 108.459 234.588 105.818C234.468 104.302 233.785 103.191 232.375 102.568C231.437 102.148 230.446 101.99 229.448 101.81C228.63 101.668 227.805 101.503 227.017 101.24C226.206 100.97 225.921 100.295 225.944 99.4541C225.974 98.6437 226.341 98.0809 227.077 97.7582C227.707 97.4806 228.367 97.4881 229.028 97.5256C230.198 97.5856 231.024 98.1184 231.406 99.2515C231.534 99.6267 231.789 99.7843 232.172 99.7843C232.547 99.7843 232.922 99.7843 233.297 99.7843C233.913 99.7768 234.16 99.4691 234.025 98.8688C233.65 97.1579 232.232 95.8072 230.476 95.537C230.206 95.492 230.123 95.4019 230.131 95.1393C230.146 94.599 230.138 94.0662 230.138 93.5259C230.138 93.0157 229.846 92.708 229.335 92.6855C228.983 92.6705 228.638 92.678 228.285 92.6855C227.722 92.6855 227.429 92.9631 227.407 93.5259C227.392 93.8861 227.407 94.2538 227.407 94.614C227.407 95.3569 227.407 95.3569 226.701 95.5295C224.653 96.0473 223.317 97.4355 223.152 99.3415C222.994 101.248 223.655 102.696 225.501 103.416C226.161 103.671 226.859 103.829 227.549 104.002C228.562 104.249 229.621 104.377 230.596 104.722C231.774 105.135 232.157 106.455 231.527 107.551C231.054 108.369 230.296 108.737 229.395 108.827C227.73 108.999 225.891 108.571 225.568 106.545C225.516 106.23 225.261 106.065 224.938 106.065C224.54 106.058 224.135 106.058 223.737 106.058C223.002 106.058 222.777 106.343 222.927 107.071C223.377 109.164 224.75 110.32 226.761 110.823C227.009 110.883 227.264 110.935 227.527 110.995C227.527 111.686 227.527 112.331 227.527 112.984C227.527 113.464 227.805 113.742 228.292 113.757C228.63 113.764 228.968 113.764 229.305 113.764C229.981 113.764 230.243 113.502 230.243 112.804C230.243 112.203 230.236 111.603 230.236 110.988ZM232.787 117.021C232.787 117.299 232.765 117.576 232.795 117.846C232.84 118.282 233.2 118.484 233.605 118.334C233.673 118.312 233.748 118.282 233.815 118.259C236.712 117.299 239.166 115.67 241.064 113.284C244.163 109.389 245.319 104.962 244.261 100.092C242.978 94.2013 239.368 90.2767 233.71 88.2356C233.132 88.0255 232.795 88.2806 232.772 88.9035C232.757 89.3012 232.75 89.7064 232.765 90.1041C232.787 90.5844 233.027 90.922 233.485 91.0946C239.031 93.2033 242.505 98.7863 241.8 104.654C241.192 109.682 238.528 113.269 233.883 115.348C232.78 115.843 232.772 115.828 232.787 117.021ZM213.014 103.199C213.059 103.859 213.067 104.527 213.157 105.18C213.787 109.652 215.896 113.269 219.535 115.963C220.893 116.968 222.394 117.696 223.993 118.229C224.435 118.372 224.668 118.289 224.81 117.846C224.901 117.569 224.885 117.261 224.893 116.961C224.901 115.805 224.848 115.73 223.805 115.295C223.692 115.25 223.58 115.19 223.46 115.138C216.594 112.076 213.517 103.589 217.584 96.5951C219.122 93.9462 221.366 92.1077 224.21 91.0046C224.72 90.8095 224.893 90.5618 224.901 90.0141C224.908 89.7364 224.901 89.4663 224.901 89.1886C224.901 88.1831 224.653 87.9955 223.715 88.3106C217.329 90.4643 213.022 96.475 213.014 103.199Z" fill="#0274D0"/>
<path d="M230.235 110.988C230.235 111.603 230.235 112.203 230.235 112.796C230.235 113.487 229.972 113.757 229.297 113.757C228.959 113.757 228.622 113.764 228.284 113.749C227.804 113.734 227.526 113.457 227.518 112.976C227.511 112.324 227.518 111.678 227.518 110.988C227.256 110.928 227.008 110.875 226.753 110.815C224.742 110.312 223.376 109.157 222.918 107.063C222.761 106.335 222.986 106.05 223.729 106.05C224.127 106.05 224.532 106.05 224.93 106.058C225.26 106.065 225.515 106.223 225.56 106.538C225.883 108.564 227.729 108.992 229.387 108.819C230.287 108.729 231.045 108.361 231.518 107.543C232.148 106.448 231.766 105.135 230.588 104.714C229.605 104.369 228.554 104.242 227.541 103.994C226.851 103.829 226.153 103.671 225.492 103.409C223.646 102.681 222.986 101.233 223.144 99.3341C223.301 97.4206 224.637 96.0323 226.693 95.522C227.398 95.3419 227.398 95.3419 227.398 94.6065C227.398 94.2464 227.391 93.8787 227.398 93.5185C227.421 92.9557 227.714 92.678 228.276 92.678C228.629 92.678 228.974 92.663 229.327 92.678C229.837 92.7005 230.122 93.0082 230.13 93.5185C230.137 94.0588 230.145 94.5915 230.122 95.1318C230.115 95.3945 230.19 95.492 230.467 95.5295C232.216 95.7997 233.642 97.1504 234.017 98.8613C234.152 99.4692 233.904 99.7693 233.289 99.7768C232.914 99.7768 232.539 99.7768 232.163 99.7768C231.788 99.7768 231.526 99.6267 231.398 99.244C231.015 98.1109 230.19 97.5856 229.019 97.5181C228.351 97.4806 227.691 97.4731 227.068 97.7507C226.333 98.0734 225.958 98.6362 225.935 99.4466C225.905 100.287 226.198 100.962 227.008 101.233C227.796 101.495 228.622 101.66 229.439 101.803C230.437 101.983 231.436 102.141 232.366 102.561C233.777 103.191 234.46 104.302 234.58 105.81C234.79 108.451 233.094 110.2 230.895 110.808C230.693 110.875 230.475 110.928 230.235 110.988Z" fill="#FEFEFE"/>
<path d="M232.787 117.021C232.772 115.82 232.779 115.843 233.89 115.348C238.535 113.269 241.199 109.682 241.807 104.654C242.512 98.7861 239.038 93.2107 233.492 91.0945C233.034 90.9219 232.794 90.5843 232.772 90.104C232.757 89.7063 232.764 89.3011 232.779 88.9034C232.802 88.2805 233.139 88.0329 233.717 88.2355C239.383 90.2766 242.985 94.2012 244.268 100.092C245.326 104.962 244.17 109.389 241.071 113.284C239.165 115.67 236.711 117.299 233.822 118.259C233.755 118.282 233.68 118.312 233.612 118.334C233.2 118.484 232.847 118.282 232.802 117.846C232.764 117.576 232.787 117.299 232.787 117.021Z" fill="#FEFEFE"/>
<path d="M213.016 103.199C213.023 96.4751 217.33 90.4719 223.724 88.3108C224.662 87.9956 224.909 88.1832 224.909 89.1887C224.909 89.4664 224.909 89.7365 224.909 90.0142C224.902 90.562 224.729 90.8021 224.219 91.0047C221.375 92.1153 219.131 93.9538 217.593 96.5952C213.526 103.589 216.602 112.076 223.476 115.138C223.589 115.19 223.701 115.243 223.821 115.295C224.872 115.738 224.924 115.805 224.909 116.961C224.909 117.254 224.917 117.569 224.827 117.847C224.684 118.289 224.444 118.372 224.009 118.229C222.411 117.704 220.902 116.969 219.552 115.963C215.912 113.269 213.803 109.652 213.173 105.18C213.068 104.519 213.061 103.859 213.016 103.199Z" fill="#FEFEFE"/>
</g>
<circle cx="285.519" cy="103" r="21" fill="#8247E5"/>
<g clip-path="url(#clip3_8_760)">
<path d="M292.685 98.1679C292.176 97.8769 291.521 97.8769 290.939 98.1679L286.865 100.568L284.101 102.096L280.1 104.497C279.591 104.788 278.936 104.788 278.354 104.497L275.226 102.605C274.717 102.314 274.353 101.732 274.353 101.078V97.4404C274.353 96.8585 274.644 96.2765 275.226 95.9128L278.354 94.0941C278.863 93.8032 279.518 93.8032 280.1 94.0941L283.228 95.9855C283.737 96.2765 284.101 96.8585 284.101 97.5132V99.9138L286.865 98.3134V95.84C286.865 95.2581 286.574 94.6761 285.992 94.3124L280.173 90.8933C279.663 90.6023 279.009 90.6023 278.427 90.8933L272.462 94.3851C271.88 94.6761 271.589 95.2581 271.589 95.84V102.678C271.589 103.26 271.88 103.842 272.462 104.206L278.354 107.625C278.863 107.916 279.518 107.916 280.1 107.625L284.101 105.297L286.865 103.697L290.866 101.369C291.375 101.078 292.03 101.078 292.612 101.369L295.74 103.187C296.249 103.478 296.613 104.06 296.613 104.715V108.352C296.613 108.934 296.322 109.516 295.74 109.88L292.685 111.699C292.176 111.99 291.521 111.99 290.939 111.699L287.811 109.88C287.302 109.589 286.938 109.007 286.938 108.352V106.024L284.174 107.625V110.025C284.174 110.607 284.465 111.189 285.047 111.553L290.939 114.972C291.448 115.263 292.103 115.263 292.685 114.972L298.577 111.553C299.087 111.262 299.45 110.68 299.45 110.025V103.115C299.45 102.533 299.159 101.951 298.577 101.587L292.685 98.1679Z" fill="white"/>
</g>
<g clip-path="url(#clip4_8_760)">
<path d="M342.21 82.4118L341.931 83.3501V110.58L342.21 110.857L354.965 103.38L342.21 82.4118Z" fill="#343434"/>
<path d="M342.21 82.4118L329.445 103.38L342.21 110.857V97.6418V82.4118Z" fill="#8C8C8C"/>
<path d="M342.21 113.247L342.051 113.435V123.134L342.21 123.588L354.975 105.78L342.21 113.247Z" fill="#3C3C3B"/>
<path d="M342.21 123.588V113.247L329.445 105.78L342.21 123.588Z" fill="#8C8C8C"/>
<path d="M342.21 110.857L354.965 103.38L342.21 97.6418V110.857Z" fill="#141414"/>
<path d="M329.445 103.38L342.21 110.857V97.6418L329.445 103.38Z" fill="#393939"/>
</g>
<path d="M0 73H395V71H0V73Z" fill="#E2E4EF" mask="url(#path-10-inside-1_8_760)"/>
</g>
<rect x="0.5" y="0.5" width="394" height="133" rx="15.5" stroke="#C6C8D9"/>
<defs>
<linearGradient id="paint0_linear_8_760" x1="182.805" y1="90.275" x2="168.344" y2="117.973" gradientUnits="userSpaceOnUse">
<stop stop-color="#00FFA3"/>
<stop offset="1" stop-color="#DC1FFF"/>
</linearGradient>
<linearGradient id="paint1_linear_8_760" x1="176.482" y1="86.9736" x2="162.021" y2="114.672" gradientUnits="userSpaceOnUse">
<stop stop-color="#00FFA3"/>
<stop offset="1" stop-color="#DC1FFF"/>
</linearGradient>
<linearGradient id="paint2_linear_8_760" x1="179.623" y1="88.6134" x2="165.163" y2="116.312" gradientUnits="userSpaceOnUse">
<stop stop-color="#00FFA3"/>
<stop offset="1" stop-color="#DC1FFF"/>
</linearGradient>
<clipPath id="clip0_8_760">
<rect width="395" height="134" rx="16" fill="white"/>
</clipPath>
<clipPath id="clip1_8_760">
<rect width="100.442" height="24.0987" fill="white" transform="translate(272.326 23.9497)"/>
</clipPath>
<clipPath id="clip2_8_760">
<rect width="42" height="41.985" fill="white" transform="translate(207.829 82.0075)"/>
</clipPath>
<clipPath id="clip3_8_760">
<rect width="27.8616" height="24.5153" fill="white" transform="translate(271.589 90.6751)"/>
</clipPath>
<clipPath id="clip4_8_760">
<rect width="25.5294" height="41.1765" fill="white" transform="translate(329.445 82.4118)"/>
</clipPath>
</defs>
</svg>
